<?xml version="1.0" encoding="utf-8"?>
<!-- Generator: Adobe Illustrator 27.5.0, SVG Export Plug-In . SVG Version: 6.00 Build 0)  -->
<svg version="1.1" xmlns="http://www.w3.org/2000/svg" xmlns:xlink="http://www.w3.org/1999/xlink" x="0px" y="0px"
	 viewBox="0 0 2000 2000" style="enable-background:new 0 0 2000 2000;" xml:space="preserve">
<g id="BACKGROUND">
	<rect style="fill:#FFFFFF;" width="2000" height="2000"/>
</g>
<g id="OBJECTS">
	<g>
		<path style="fill:#B586FF;" d="M1853.118,0h-58.601c-5.717,2.719-11.436,5.433-17.233,7.967c-7.43,3.248-13.631,7.583-9.465,16.52
			c4.304,9.232,12.346,8.283,20.059,4.49c10.189-5.01,20.167-10.344,31.384-12.952c18.669-4.34,30.219,6.491,27.34,25.548
			c-1.992,13.184-6.804,25.302-12.565,37.155c-3.19,6.563-2.103,12.504,4.343,15.88c6.829,3.576,12.72,1.155,16.234-5.764
			c5.746-11.314,10.548-23.007,13.439-35.425C1873.39,30.491,1868.641,13.293,1853.118,0z"/>
		<path style="fill:#F2E7AE;" d="M738.824,0c-6.922,3.228-13.844,6.456-20.803,9.601c-4.834,2.184-7.431,5.649-7.256,11.017
			c0.287,8.844,9.088,13.414,18.627,9.302c10.401-4.484,20.018-10.703,31.257-13.334c21.885-5.122,33.221,5.624,29.369,27.973
			c-2.126,12.33-7.188,23.555-12.464,34.75c-2.742,5.817-2.047,11.331,3.803,14.886c5.592,3.396,11.143,2.566,15.18-2.683
			C818.889,62.446,818.415,26.308,796.04,0H738.824z"/>
		<path style="fill:#FFE393;" d="M1297.446,0h-23.529c0.442,6.966,0.886,13.932,1.318,20.899c0.07,1.126,0.054,2.257,0.078,3.385
			c-1.067-0.309-2.201-0.478-3.192-0.948c-8.067-3.833-16.031-7.895-24.192-11.515c-3.662-1.625-2.344-2.301-0.183-4.102
			c3.515-2.931,7.808-4.849,11.362-7.718h-40.928c-12.099,9.481-10.668,17.807,4.535,25.229
			c18.259,8.914,36.616,17.629,54.975,26.338c5.582,2.648,11.518,4.439,17.077,0.344c5.729-4.221,5.508-10.562,5.03-16.918
			C1298.918,23.336,1298.203,11.666,1297.446,0z"/>
		<path style="fill:#AAF2A7;" d="M240.939,0h-23.5c0.544,7.144,1.064,14.29,1.73,21.422c0.261,2.789-0.486,3.014-2.796,1.909
			c-8.341-3.991-16.697-7.953-25.129-11.747c-3.36-1.512-2.087-2.274-0.058-3.943c3.542-2.912,7.899-4.76,11.457-7.642h-40.725
			c-0.291,0.217-0.577,0.439-0.869,0.654c-9.664,7.108-9.209,17.01,1.516,22.334c20.223,10.038,40.558,19.868,61.057,29.329
			c11.539,5.326,20.407-0.737,19.887-13.451C242.98,25.897,241.873,12.952,240.939,0z"/>
		<path style="fill:#50A7F2;" d="M1541.963,0c-3.837,12.477-7.519,25.008-11.758,37.347c-2.632,7.662-3.253,14.887,5.274,18.005
			c9.122,3.336,14.637-2.017,17.413-10.73c4.748-14.899,9.636-29.754,14.483-44.622H1541.963z"/>
		<path style="fill:#F2E7AE;" d="M486.331,0c-4.37,13.276-8.707,26.563-13.163,39.81c-2.337,6.948-0.706,12.681,6.066,15.355
			c6.664,2.632,13.138,0.702,15.661-6.486c5.654-16.11,10.721-32.425,15.961-48.68H486.331z"/>
		<path style="fill:#50A7F2;" d="M47.86,689.502C32.66,681.979,16.825,676.646,0,674.534v23.445
			c13.428,1.356,25.826,6.042,37.73,12.277c6.716,3.518,13.251,4.18,17.175-3.443C58.959,698.937,55.468,693.268,47.86,689.502z"/>
		<path style="fill:#AAF2A7;" d="M48.25,1746.305c-15.312-7.648-31.271-13.083-48.25-15.236v23.372
			c13.669,1.022,26.053,6.251,38.173,12.302c6.713,3.352,13.089,3.273,16.765-3.843C58.754,1755.51,55.547,1749.949,48.25,1746.305z
			"/>
		<path style="fill:#AAF2A7;" d="M2000,455.12c-4.937,14.917-9.738,29.88-14.676,44.797c-2.112,6.382-2.454,12.4,3.627,16.699
			c3.87,2.736,7.559,2.606,11.049,0.997V455.12z"/>
		<path style="fill:#F2E7AE;" d="M2000,1512.556c-4.603,13.97-9.162,27.955-13.795,41.916c-2.057,6.198-3.898,12.319,1.992,17.507
			c4.073,3.588,7.974,3.178,11.802,1.548V1512.556z"/>
		<path style="fill:#E8847A;" d="M702.57,2000c0.905-1.304,1.822-2.6,2.801-3.847c4.491-5.721,4.825-11.581-0.631-16.502
			c-5.385-4.857-11.92-4.514-16.485,0.831c-5.196,6.084-9.557,12.882-14.107,19.517H702.57z"/>
		<path style="fill:#AAF2A7;" d="M1758.968,2000c0.956-1.464,1.919-2.924,2.92-4.357c3.969-5.681,4.356-11.476-0.968-16.191
			c-5.314-4.706-11.687-4.093-16.074,1.061c-5.189,6.095-9.581,12.868-14.153,19.487H1758.968z"/>
		<path style="fill:#AAF2A7;" d="M0,1244.905v46.361c4.635-7.068,7.554-15.048,11.253-22.597
			C18.278,1254.329,14.608,1246.753,0,1244.905z"/>
		<path style="fill:#E8847A;" d="M0,189.114v45.908c5.232-7.403,7.994-16.126,11.96-24.18C18.388,197.79,13.573,189.589,0,189.114z"
			/>
		<path style="fill:#AAF2A7;" d="M16.051,1001.421C13.584,993.629,6.403,992.684,0,990.67v24.559
			c4.637,1.573,9.19,2.005,13.426-2.035C16.929,1009.854,17.323,1005.439,16.051,1001.421z"/>
		<path style="fill:#AAF2A7;" d="M1348.972,0c0.005,4.53,0.993,8.678,6.162,11.081c4.304,2.001,8.606,1.771,12.288-1.379
			c3.193-2.732,4.494-6.03,4.178-9.703H1348.972z"/>
		<path style="fill:#F2C6B6;" d="M292.778,0c-0.301,3.699,0.845,7.042,4.257,9.711c3.803,2.975,8.107,3.291,12.362,1.033
			c4.677-2.482,6.01-6.362,6.022-10.744H292.778z"/>
		<path style="fill:#B586FF;" d="M865.477,2000c-1.666-1.95-4.373-2.408-7.056-2.583c-3.274-0.215-6.327,0.309-8.348,2.583H865.477z
			"/>
		<path style="fill:#50A7F2;" d="M1922.006,2000c-1.603-1.813-4.179-2.283-6.67-2.555c-3.322-0.362-6.22,0.409-8.343,2.555H1922.006
			z"/>
		<path style="fill:#B586FF;" d="M1801.832,836.884c-2.745-1.027-8.13-2.762-13.287-5.018
			c-24.262-10.612-48.423-21.456-72.705-32.021c-8.104-3.526-10.214-9.622-7.066-17.038c12.113-28.531,24.549-56.926,37.104-85.266
			c2.903-6.553,8.843-8.503,15.165-5.818c28.861,12.256,57.629,24.736,86.283,37.467c6.425,2.854,8.412,8.866,5.69,15.257
			c-12.275,28.814-24.81,57.518-37.375,86.207C1813.631,835.241,1809.79,837.49,1801.832,836.884z M1764.091,720.269
			c-0.53,0.807-1.23,1.603-1.634,2.527c-8.124,18.58-16.128,37.213-24.407,55.722c-1.217,2.72-0.182,3.346,1.814,4.213
			c18.298,7.945,36.599,15.886,54.858,23.921c2.214,0.974,3.527,1.531,4.783-1.414c7.881-18.477,15.982-36.859,23.94-55.304
			c0.43-0.996,2.094-2.526,0.231-3.357C1803.987,737.799,1784.242,729.144,1764.091,720.269z"/>
		<path style="fill:#F2E7AE;" d="M797.853,1798.349c-1.589,4.002-3.749,9.918-6.258,15.683
			c-10.057,23.113-20.374,46.114-30.277,69.293c-4.212,9.859-10.636,12.336-20.283,8.112c-27.237-11.926-54.557-23.662-81.77-35.641
			c-7.515-3.308-9.96-9.381-6.724-16.919c12.119-28.23,24.404-56.389,36.766-84.514c3.245-7.383,9.579-8.928,16.326-6.065
			c28.704,12.184,57.259,24.721,85.826,37.223C795.949,1787.484,797.794,1791.364,797.853,1798.349z M768.279,1803.528
			c-0.721-0.531-1.434-1.286-2.31-1.671c-18.575-8.155-37.197-16.205-55.728-24.46c-2.778-1.237-3.302,0.133-4.157,2.089
			c-8.065,18.452-16.134,36.904-24.333,55.297c-1.05,2.355-0.715,3.207,1.672,4.235c18.319,7.889,36.591,15.887,54.813,23.996
			c2.944,1.31,4.032,0.607,5.232-2.252c4.528-10.783,9.388-21.425,14.061-32.148
			C761.087,1820.447,764.551,1812.236,768.279,1803.528z"/>
		<path style="fill:#FFE393;" d="M1759.784,1747.484c2.288,0.845,7.07,2.346,11.635,4.343
			c24.862,10.875,49.646,21.932,74.514,32.794c7.808,3.41,10.095,9.315,6.984,16.642c-12.122,28.547-24.537,56.972-37.064,85.345
			c-2.759,6.248-8.492,8.765-14.637,6.17c-29.187-12.324-58.247-24.955-87.19-37.842c-6.23-2.774-7.963-8.738-5.311-14.947
			c12.306-28.811,24.818-57.534,37.387-86.232C1748.112,1749.17,1751.989,1746.943,1759.784,1747.484z M1764.845,1776.828
			c-2.295-0.624-2.29,1.517-2.768,2.607c-8.018,18.252-15.85,36.588-23.967,54.796c-1.332,2.987-0.423,3.919,2.078,4.997
			c18.299,7.89,36.59,15.8,54.807,23.874c2.803,1.242,3.787,0.589,4.914-2.039c7.792-18.171,15.65-36.314,23.725-54.361
			c1.359-3.038,0.79-4.084-2.078-5.3c-11.063-4.693-22.011-9.655-33.029-14.453
			C1780.657,1783.523,1772.744,1780.199,1764.845,1776.828z"/>
		<path style="fill:#B586FF;" d="M652.248,785.716c0.751-2.125,2.042-6.636,3.904-10.897c11.003-25.179,22.19-50.278,33.201-75.454
			c3.484-7.966,9.205-10.338,16.995-6.994c27.953,11.996,55.852,24.118,83.723,36.302c7.585,3.316,9.284,9.634,6.293,16.643
			c-12.183,28.549-24.634,56.985-37.203,85.367c-2.871,6.483-8.79,8.041-14.828,5.474c-28.897-12.285-57.661-24.884-86.408-37.518
			C653.652,796.762,651.902,792.904,652.248,785.716z M768.101,748.079c0.536-2.281-1.497-2.32-2.621-2.816
			c-18.297-8.077-36.667-15.99-54.913-24.179c-2.805-1.259-3.865-0.916-5.025,1.81c-7.828,18.404-15.743,36.771-23.742,55.101
			c-1.027,2.353-1.096,3.569,1.611,4.731c18.374,7.886,36.716,15.847,54.967,24.013c3.179,1.422,4.027,0.453,5.211-2.308
			c7.692-17.938,15.567-35.798,23.38-53.685C767.36,749.852,767.733,748.949,768.101,748.079z"/>
		<path style="fill:#AAF2A7;" d="M196.61,1345.967c-29.927-0.032-54.031-24.187-53.965-54.078
			c0.066-29.622,24.273-53.813,53.839-53.804c29.803,0.009,53.988,24.318,53.904,54.18
			C250.304,1321.999,226.271,1345.999,196.61,1345.967z M196.775,1262.296c-16.606-0.068-30.344,13.371-30.445,29.783
			c-0.098,16.016,13.549,29.683,29.865,29.908c16.32,0.224,30.302-13.457,30.509-29.854
			C226.905,1276.222,213.003,1262.363,196.775,1262.296z"/>
		<path style="fill:#75E2FF;" d="M1198.968,235.894c0.097-29.955,24.311-53.853,54.396-53.685
			c29.328,0.164,53.308,24.385,53.349,53.884c0.041,29.628-24.084,53.796-53.758,53.852
			C1223.062,290.003,1198.872,265.783,1198.968,235.894z M1282.77,236.574c0.33-16.383-13.224-30.386-29.684-30.667
			c-16.033-0.274-29.866,13.204-30.302,29.525c-0.438,16.416,12.89,30.21,29.643,30.68
			C1268.448,266.562,1282.441,252.94,1282.77,236.574z"/>
		<path style="fill:#E8847A;" d="M250.392,235.9c-0.011,29.652-24.417,54.152-53.69,53.897
			c-29.954-0.26-53.885-24.156-53.832-53.753c0.053-29.934,24.288-54,54.278-53.901C226.562,182.24,250.404,206.312,250.392,235.9z
			 M196.631,265.927c16.344,0.08,30.046-13.375,30.217-29.674c0.171-16.34-13.51-30.207-30.005-30.411
			c-16.432-0.203-30.339,13.407-30.513,29.861C166.16,251.829,180.214,265.847,196.631,265.927z"/>
		<path style="fill:#50A7F2;" d="M1306.374,1292.623c-0.497,30.522-24.563,53.705-55.175,53.15
			c-28.907-0.524-52.272-24.959-51.698-54.065c0.604-30.67,24.188-53.631,54.561-53.12
			C1283.366,1239.081,1306.85,1263.339,1306.374,1292.623z M1282.552,1292.274c0.053-16.653-13.006-29.939-29.549-30.064
			c-16.854-0.127-30.288,13.096-30.307,29.832c-0.019,16.755,13.339,30.111,30.115,30.11
			C1269.358,1322.151,1282.5,1308.95,1282.552,1292.274z"/>
		<path style="fill:#50A7F2;" d="M1451.808,283.186c-15.522,0.173-21.356-8.468-15.462-21.104
			c9.278-19.89,18.753-39.692,28.409-59.401c5.883-12.008,16.213-12.538,23.779-1.523c11.996,17.466,24.015,34.916,35.952,52.422
			c3.547,5.202,6.704,10.719,3.458,17.204c-3.234,6.462-9.419,7.224-15.807,7.694
			C1491.485,279.996,1470.847,281.688,1451.808,283.186z M1466.786,258.382c9.082-0.71,18.166-1.396,27.244-2.15
			c1.758-0.146,3.749-0.227,1.83-2.957c-5.235-7.451-10.366-14.974-15.493-22.5c-1.337-1.963-2.048-1.986-3.119,0.313
			c-3.84,8.243-7.87,16.397-11.818,24.59C1464.711,257.168,1463.599,258.893,1466.786,258.382z"/>
		<path style="fill:#50A7F2;" d="M394.866,283.165c-14.528,0.166-20.263-8.74-14.454-21.036
			c9.37-19.834,18.767-39.656,28.273-59.425c5.647-11.745,16.579-12.387,23.939-1.615c11.76,17.213,23.582,34.384,35.401,51.556
			c3.781,5.494,7.314,11.249,3.999,18.029c-3.348,6.848-10.144,7.268-16.789,7.763C434.771,279.964,414.317,281.632,394.866,283.165
			z M411.927,258.315c8.207-0.578,17.119-1.157,26.021-1.876c1.645-0.133,4.419,0.134,2.129-3.129
			c-5.405-7.701-10.722-15.466-15.956-23.285c-1.525-2.277-2.108-1.426-2.951,0.402c-3.924,8.503-7.849,17.006-11.897,25.449
			C408.075,258.372,408.652,259.069,411.927,258.315z"/>
		<path style="fill:#F2C6B6;" d="M393.412,1339.439c-11.755,0.288-18.412-8.228-13.627-18.927
			c9.67-21.623,19.902-43.009,30.499-64.195c4.397-8.79,14.746-9.469,20.461-1.418c13.75,19.372,27.198,38.973,40.193,58.858
			c6.018,9.208,1.039,18.956-9.821,19.992C438.573,1335.9,415.983,1337.574,393.412,1339.439z M409.444,1314.744
			c10.429-0.865,20.128-1.759,29.842-2.42c2.724-0.185,1.969-1.211,1.049-2.548c-5.431-7.896-10.917-15.754-16.283-23.694
			c-1.119-1.655-1.659-2.04-2.629,0.055c-4.076,8.804-8.235,17.569-12.357,26.352
			C408.525,1313.643,407.483,1315.096,409.444,1314.744z"/>
		<path style="fill:#F2E7AE;" d="M243.6,1093.11c0.123,15.448-8.486,21.122-20.923,15.276
			c-19.859-9.335-39.632-18.855-59.365-28.454c-11.57-5.628-12.274-16.252-1.721-23.513c17.846-12.28,35.631-24.651,53.588-36.767
			c12.629-8.52,22.619-3.276,23.679,11.897C240.335,1052.681,242.099,1073.792,243.6,1093.11z M218.826,1076.707
			c-0.577-8.128-1.265-17.204-1.841-26.288c-0.173-2.728-1.116-3.001-3.22-1.52c-8.089,5.694-16.214,11.336-24.326,16.997
			c8.88,4.502,17.77,8.987,26.634,13.52C218.126,1080.466,219.522,1080.722,218.826,1076.707z"/>
		<path style="fill:#F2C6B6;" d="M1455.906,1338.755c-20.274,1.011-25.923-7.497-18.482-22.975
			c9.029-18.779,18.043-37.565,27.146-56.307c5.953-12.258,16.317-13.184,24.023-2.047c12.342,17.837,24.592,35.74,36.7,53.736
			c8.275,12.299,3.751,21.554-11.059,22.827C1493.75,1335.749,1473.252,1337.345,1455.906,1338.755z M1465.948,1314.605
			c8.262-0.502,16.518-1.126,24.787-1.464c6.032-0.246,7.392-1.692,3.161-6.965c-4.862-6.059-8.918-12.767-13.28-19.224
			c-1.188-1.759-1.911-3.054-3.327,0.01c-3.948,8.541-8.201,16.94-12.212,25.453
			C1464.794,1313.015,1462.513,1315.248,1465.948,1314.605z"/>
		<path style="fill:#AAF2A7;" d="M1052.863,189.11c16.312-0.181,21.973,8.204,16.013,20.98
			c-9.213,19.75-18.608,39.419-28.169,59.003c-6.046,12.384-16.24,12.945-24.001,1.627c-11.983-17.474-24.126-34.84-35.94-52.428
			c-9.265-13.794-4.245-23.308,12.35-24.494C1013.777,192.322,1034.417,190.569,1052.863,189.11z M1036.38,213.278
			c-9.475,0.878-16.899,1.745-24.347,2.18c-3.703,0.216-4.578,0.83-2.151,4.167c5.058,6.954,9.997,14.007,14.659,21.229
			c2.234,3.461,2.928,2.055,4.125-0.536c3.184-6.894,6.246-13.863,9.842-20.541C1041.381,214.438,1041.529,211.783,1036.38,213.278z
			"/>
		<path style="fill:#FFE393;" d="M149.523,1492.007c-0.18-16.425,8.315-22.077,21.274-15.948
			c19.544,9.242,39.034,18.604,58.451,28.109c12.703,6.219,13.26,16.171,1.61,24.16c-17.064,11.701-34.022,23.56-51.19,35.106
			c-15.083,10.144-24.13,5.538-25.485-12.528C152.659,1530.587,150.975,1510.282,149.523,1492.007z M173.908,1509.218
			c0.538,7.259,1.332,13.252,1.341,19.246c0.013,8.551,2.599,8.972,8.78,3.862c5.232-4.326,11.098-7.909,16.826-11.602
			c2.997-1.932,3.77-2.956-0.212-4.682c-6.824-2.957-13.523-6.228-20.143-9.624C175.729,1503.971,171.64,1501.855,173.908,1509.218z
			"/>
		<path style="fill:#AAF2A7;" d="M1206.063,437.196c-0.178-18.088,7.801-23.349,21.526-16.853
			c19.389,9.176,38.747,18.418,58.079,27.714c11.61,5.582,12.441,16.728,1.882,23.961c-17.597,12.053-35.151,24.171-52.802,36.144
			c-13.32,9.036-22.793,4.245-24.005-11.855C1209.19,475.677,1207.484,455.058,1206.063,437.196z M1230.454,452.882
			c0.668,8.081,1.575,14.744,1.668,21.419c0.09,6.511,1.673,6.917,6.633,3.045c6.923-5.405,14.345-10.171,21.553-15.21
			c-7.934-3.881-15.978-7.557-23.763-11.717C1231.587,447.769,1228.815,447.179,1230.454,452.882z"/>
		<path style="fill:#AAF2A7;" d="M162.946,417.18c2.19,0.762,5.198,1.514,7.948,2.813c19.546,9.238,39.036,18.596,58.551,27.899
			c4.869,2.321,9.088,5.058,9.555,11.221c0.478,6.307-3.187,9.799-7.876,12.983c-17.257,11.72-34.385,23.63-51.642,35.35
			c-13.927,9.458-22.739,5.941-24.534-10.549c-2.328-21.388-3.898-42.87-5.263-64.345
			C149.164,424.354,152.961,418.424,162.946,417.18z M174.131,456.518c0.146-0.001,0.292-0.002,0.438-0.004
			c0.481,6.327,0.923,12.656,1.469,18.977c0.137,1.589,0.607,3.15,0.924,4.724c1.499-0.776,3.086-1.419,4.48-2.351
			c6.343-4.237,12.54-8.701,18.978-12.786c3.651-2.316,4.743-3.54-0.281-5.532c-6.017-2.385-11.727-5.536-17.615-8.259
			c-2.743-1.269-5.592-2.309-8.394-3.452C174.131,450.729,174.131,453.623,174.131,456.518z"/>
		<path style="fill:#F2E7AE;" d="M1052.385,1245.3c16.686-1.256,22.842,7.487,15.718,22.529
			c-9.054,19.119-18.14,38.223-27.32,57.281c-5.733,11.903-16.395,12.648-23.806,1.812c-11.962-17.489-23.983-34.938-35.917-52.446
			c-9.024-13.24-4.927-22.747,10.839-24.26C1012.034,1248.285,1032.221,1246.914,1052.385,1245.3z M1039.502,1269.484
			c-9.548,0.777-19.095,1.581-28.647,2.313c-2.283,0.175-3.334,0.526-1.59,2.995c5.537,7.838,10.951,15.764,16.315,23.721
			c1.219,1.809,1.8,1.688,2.672-0.185c4.103-8.822,8.27-17.615,12.406-26.421
			C1041.261,1270.622,1042.444,1269.033,1039.502,1269.484z"/>
		<path style="fill:#75E2FF;" d="M1206.042,1489.985c-0.127-14.008,8.113-19.761,19.946-14.349
			c20.413,9.337,40.692,18.979,60.856,28.842c10.625,5.197,11.169,16.145,1.394,22.912c-17.832,12.344-35.703,24.635-53.682,36.761
			c-13.035,8.792-22.598,3.988-23.818-11.796C1209.104,1531.22,1207.551,1510.078,1206.042,1489.985z M1229.994,1505.392
			c0.807,9.539,1.621,19.077,2.411,28.617c0.136,1.647-0.208,3.598,2.495,1.708c7.86-5.496,15.778-10.911,23.72-16.287
			c1.788-1.21,1.815-1.875-0.193-2.811c-8.816-4.107-17.597-8.29-26.384-12.459
			C1230.688,1503.516,1229.458,1502.947,1229.994,1505.392z"/>
		<path style="fill:#AAF2A7;" d="M1299.796,1094.321c0.353,13.13-8.601,19.63-19.694,14.497
			c-20.978-9.708-41.799-19.765-62.516-30.018c-8.985-4.446-9.842-14.936-1.656-20.707c18.919-13.338,37.974-26.497,57.274-39.274
			c9.978-6.605,19.83-2.282,20.948,9.047C1296.362,1050.268,1297.995,1072.729,1299.796,1094.321z M1275.221,1077.668
			c-0.676-8.427-1.461-17.834-2.165-27.248c-0.195-2.599-0.735-3.496-3.326-1.669c-7.454,5.256-15.036,10.332-22.599,15.432
			c-1.776,1.198-3.024,2.01-0.036,3.394c8.698,4.027,17.307,8.245,25.963,12.362
			C1274.357,1080.558,1276.007,1081.558,1275.221,1077.668z"/>
		<path style="fill:#B586FF;" d="M1737.329,480.234c-29.802,0.016-49.172-23.299-45.934-49.304
			c2.127-17.079,8.203-32.643,15.587-47.862c3.32-6.842,8.922-9.835,16.045-6.128c6.948,3.616,8.086,9.616,4.737,16.65
			c-7.127,14.968-14.928,29.894-12.127,47.289c1.979,12.289,10.825,17.712,23.202,15.445c13.641-2.499,25.581-9.202,38.026-14.726
			c6.588-2.924,12.709-1.801,16.603,4.686c3.351,5.583,2.224,11.687-3.245,14.598
			C1772.34,470.401,1754.281,479.875,1737.329,480.234z"/>
		<path style="fill:#50A7F2;" d="M679.119,1536.33c-28.268,0.057-47.129-23.605-43.334-51.336
			c2.228-16.282,7.661-31.448,15.253-45.922c3.623-6.907,9.268-9.29,16.205-5.798c7.031,3.54,7.516,9.854,4.389,16.324
			c-5.971,12.353-11.705,24.734-12.715,38.694c-1.359,18.769,9.283,27.764,27.478,23.55c11.077-2.565,20.922-7.907,31.021-12.754
			c7.685-3.689,15.701-5.282,20.09,4.107c4.216,9.019-1.941,13.302-9.483,16.999C711.74,1528.175,695.336,1535.415,679.119,1536.33z
			"/>
		<path style="fill:#F2C6B6;" d="M440.647,811.677c-0.001,28.183-26.204,46.818-56.63,40.549
			c-14.137-2.912-27.386-8.066-40.198-14.505c-6.647-3.341-9.628-8.721-6.223-15.68c3.46-7.072,9.431-8.186,16.487-4.902
			c15.305,7.125,30.524,15.053,48.272,11.941c11.232-1.97,16.67-10.441,14.922-21.766c-2.15-13.93-9.035-26.014-14.585-38.655
			c-2.922-6.655-2.566-13.363,4.661-17.413c5.47-3.065,10.57-1.575,14.259,3.391C430.905,767.149,440.648,796.672,440.647,811.677z"
			/>
		<path style="fill:#F2C6B6;" d="M1497.017,809.257c0.005,27.387-22.485,46.4-48.1,44.051c-17.715-1.625-33.799-7.784-49.388-15.683
			c-6.625-3.357-9.291-8.967-5.741-15.816c3.554-6.856,9.64-7.677,16.279-4.487c13.536,6.503,27.158,12.79,42.598,12.718
			c15.456-0.072,23.008-9.806,20.134-25.051c-2.231-11.833-7.337-22.452-12.817-32.991c-4.032-7.754-5.816-15.953,3.708-20.588
			c9.339-4.545,13.527,2.145,17.214,9.794C1488.703,777.384,1496.028,793.617,1497.017,809.257z"/>
		<path style="fill:#50A7F2;" d="M1497.128,1865.078c-0.021,28.697-23.523,47.611-50.941,43.991
			c-16.448-2.171-31.849-7.397-46.417-15.233c-6.762-3.637-9.76-9.037-5.798-16.09c3.861-6.873,9.964-7.56,16.846-4.093
			c14.44,7.274,29.115,14.137,45.913,12.023c12.886-1.622,18.824-10.606,16.467-23.283c-2.412-12.974-8.224-24.544-14.029-36.199
			c-5.266-10.573,0.051-20.427,10.313-20.024c3.583,0.141,6.702,1.617,8.19,4.566
			C1486.823,1828.872,1496.552,1846.86,1497.128,1865.078z"/>
		<path style="fill:#F2E7AE;" d="M1735.029,1536.451c-29.501,0.105-48.141-25.858-42.392-56.309
			c2.636-13.961,7.645-27.096,13.886-39.812c3.515-7.16,8.887-10.922,16.487-7.107c7.461,3.746,7.291,10.393,4.03,17.172
			c-5.723,11.898-11.213,23.935-12.226,37.289c-1.486,19.577,9.487,28.526,28.425,24.028c10.907-2.591,20.61-7.839,30.55-12.634
			c7.625-3.679,15.399-4.974,19.746,3.991c4.384,9.042-1.886,13.414-9.377,17.07
			C1767.879,1528.082,1751.474,1535.383,1735.029,1536.451z"/>
		<path style="fill:#75E2FF;" d="M1869.778,1096.422c-0.995,16.043-7.158,33.719-16.387,50.332
			c-3.277,5.898-9.105,7.632-15.118,4.175c-6.143-3.532-7.378-9.216-4.345-15.596c5.59-11.759,10.599-23.641,12.599-36.693
			c3.019-19.7-8.41-30.644-27.65-26.186c-11.065,2.564-20.982,7.78-31.022,12.77c-7.847,3.9-15.729,4.882-20.016-4.37
			c-4.087-8.82,1.972-13.183,9.39-16.657c12.523-5.866,24.926-11.833,38.567-14.846
			C1846.316,1042.607,1870.1,1061.856,1869.778,1096.422z"/>
		<path style="fill:#50A7F2;" d="M770.412,1047.865c26.831-0.002,45.943,22.755,43.373,48.257
			c-1.782,17.682-7.935,33.773-15.889,49.339c-3.306,6.469-8.78,8.888-15.475,5.479c-6.753-3.439-7.649-9.476-4.644-15.831
			c5.303-11.216,10.254-22.511,12.306-34.847c3.691-22.196-7.761-32.634-29.528-27.262c-10.563,2.607-19.933,7.812-29.605,12.424
			c-7.634,3.64-15.2,4.064-19.158-4.708c-3.857-8.548,1.84-12.891,9.106-16.412C737.363,1056.326,753.916,1048.887,770.412,1047.865
			z"/>
		<path style="fill:#50A7F2;" d="M1008.74,1775.653c-0.151-28.784,23.196-47.996,49.337-44.675
			c16.92,2.15,32.335,8.013,47.365,15.481c6.969,3.463,9.624,9.018,6.084,16.043c-3.503,6.952-9.708,7.686-16.266,4.426
			c-12.592-6.26-25.339-12.118-39.659-12.671c-18.754-0.724-27.005,9.762-22.608,27.921c2.669,11.025,7.839,20.964,12.751,31.047
			c3.686,7.567,4.961,15.407-4.2,19.631c-8.741,4.03-13.04-1.794-16.716-9.22C1016.792,1807.404,1009.565,1791.04,1008.74,1775.653z
			"/>
		<path style="fill:#50A7F2;" d="M1057.567,675.03c15.339,0.595,32.921,7.24,49.614,16.334c6.097,3.321,7.688,9.225,4.064,15.499
			c-3.531,6.111-9.161,7.303-15.182,4.29c-11.837-5.922-23.873-10.86-37.13-12.82c-19.672-2.908-30.51,8.575-25.933,27.797
			c2.635,11.069,8.101,20.89,12.861,31.043c3.58,7.636,4.742,15.456-4.328,19.69c-8.895,4.153-13.057-2.102-16.71-9.344
			c-7.205-14.281-13.49-28.857-15.739-44.783C1005.298,695.924,1025.309,674.599,1057.567,675.03z"/>
		<path style="fill:#F2C6B6;" d="M677.037,480.2c-25.631,0.036-44.519-22.718-41.277-49.172c2.085-17.012,7.34-32.845,15.469-47.851
			c3.493-6.448,8.564-9.35,15.29-5.97c7.105,3.571,8.118,9.715,4.545,16.597c-6.101,11.753-10.64,23.973-12.542,37.182
			c-2.599,18.046,8.677,28.823,26.338,25.17c12.953-2.679,24.213-9.365,36.212-14.328c7.018-2.904,13.62-1.566,16.583,6.221
			c2.778,7.301-0.858,12.047-7.766,14.919c-4.499,1.87-8.764,4.298-13.147,6.45C703.649,475.842,687.632,480.185,677.037,480.2z"/>
		<path style="fill:#B586FF;" d="M440.626,1864.652c0.012,32.242-26.184,50.134-58.483,43.349
			c-13.06-2.744-25.476-7.369-37.389-13.391c-6.934-3.505-10.62-8.764-6.971-16.216c3.684-7.524,10.155-7.597,17.043-4.172
			c11.393,5.666,23.147,10.206,35.843,12.091c19.33,2.869,30.033-8.811,25.722-27.755c-2.859-12.562-9.886-23.314-14.256-35.183
			c-2.294-6.229-1.346-12.143,5.001-15.647c5.501-3.037,11.319-1.935,14.165,3.399
			C430.85,1829.023,440.215,1847.124,440.626,1864.652z"/>
		<path style="fill:#50A7F2;" d="M1543.243,1112.515c-11.536-0.038-16.727-7.275-14.152-15.221
			c8.391-25.885,16.863-51.744,25.325-77.606c2.471-7.551,7.35-11.899,15.486-9.302c8.315,2.654,9.273,9.265,6.885,16.67
			c-8.032,24.906-16.134,49.791-24.27,74.663C1550.511,1107.85,1547.074,1112.489,1543.243,1112.515z"/>
		<path style="fill:#75E2FF;" d="M1432.268,1579.047c0.035-8.11,7.697-13.229,15.818-10.568
			c25.668,8.409,51.339,16.812,77.004,25.231c7.645,2.508,12.408,7.332,9.599,15.694c-2.732,8.13-9.424,9.156-16.816,6.758
			c-25.137-8.154-50.252-16.377-75.356-24.635C1436.537,1589.561,1432.067,1586.179,1432.268,1579.047z"/>
		<path style="fill:#F2E7AE;" d="M478.953,552.128c-0.551,5.578-5.231,10.825-12.992,8.497c-27.69-8.303-55.17-17.344-82.521-26.713
			c-6.554-2.245-9.503-8.389-6.366-15.245c2.979-6.51,8.513-8.478,15.513-6.152c25.568,8.499,51.159,16.929,76.753,25.35
			C475.08,539.754,479.234,542.861,478.953,552.128z"/>
		<path style="fill:#FFE393;" d="M1432.286,523.173c-0.01-7.936,7.063-13.432,14.613-10.978
			c26.393,8.579,52.753,17.263,79.077,26.052c6.856,2.289,10.965,7.028,8.695,14.548c-2.277,7.542-8.188,10.051-15.454,7.721
			c-26.14-8.381-52.221-16.95-78.243-25.692C1435.751,533.07,1432.108,529.346,1432.286,523.173z"/>
		<path style="fill:#B586FF;" d="M479.068,1603.493c0.108,10.7-7.232,16.024-15.991,13.217
			c-25.836-8.277-51.614-16.742-77.323-25.403c-7.402-2.494-11.665-7.961-8.75-15.927c2.849-7.785,9.253-8.592,16.54-6.187
			c24.767,8.175,49.556,16.286,74.358,24.352C474.004,1595.531,479.085,1598.27,479.068,1603.493z"/>
		<path style="fill:#50A7F2;" d="M484.086,1112.49c-8.312,0.066-13.578-7.414-10.892-15.598
			c8.447-25.73,16.931-51.448,25.411-77.167c2.451-7.433,7.078-12.227,15.298-9.505c8.13,2.692,9.292,9.318,6.888,16.754
			c-8.128,25.142-16.301,50.269-24.568,75.366C494.325,1108.104,490.989,1112.528,484.086,1112.49z"/>
		<path style="fill:#B586FF;" d="M976.886,428.729c-2.352,7.202-5.093,15.63-7.857,24.05c-6.213,18.929-12.442,37.852-18.652,56.781
			c-2.375,7.241-7.517,10.525-14.685,8.392c-7.622-2.268-9.718-8.491-7.423-15.655c8.216-25.657,16.642-51.248,25.161-76.807
			c2.218-6.654,6.758-11.11,14.297-9.761C973.743,416.806,976.614,421.222,976.886,428.729z"/>
		<path style="fill:#F2C6B6;" d="M977.125,1484.218c-2.837,8.678-5.942,18.187-9.054,27.694
			c-5.901,18.027-11.783,36.061-17.719,54.077c-2.318,7.033-7.378,10.089-14.38,8.015c-7.062-2.092-9.74-7.719-7.557-14.609
			c8.365-26.403,17.012-52.717,25.661-79.029c2.292-6.974,7.558-9.715,14.527-8.252
			C974.271,1473.305,976.665,1477.641,977.125,1484.218z"/>
		<path style="fill:#F2C6B6;" d="M984.256,967.059c9.154,3.004,19.786,6.517,30.434,9.983c16.225,5.282,32.493,10.434,48.677,15.836
			c7.805,2.605,11.861,8.304,8.854,16.237c-2.884,7.609-9.241,8.265-16.673,5.764c-25.378-8.54-50.882-16.707-76.321-25.066
			c-6.746-2.216-9.758-7.059-8.377-13.964C972.076,969.723,976.447,967.021,984.256,967.059z"/>
		<path style="fill:#E8847A;" d="M749.429,1664.139c-1.766-0.057-5.169-2.024-7.289-5.881c-2.42-4.404-1.966-8.772,0.955-12.796
			c5.826-8.024,11.688-16.022,17.624-23.964c4.334-5.799,9.986-7.558,16.154-3.475c6.383,4.225,7.133,10.432,3.025,16.611
			c-5.489,8.256-11.43,16.22-17.387,24.151C760.001,1662.127,756.568,1664.312,749.429,1664.139z"/>
		<path style="fill:#AAF2A7;" d="M1624.673,736.684c0.049,4.519-2.068,7.854-5.886,9.975c-4.023,2.235-8.262,2.167-12.031-0.509
			c-8.361-5.937-16.66-11.971-24.819-18.182c-5.876-4.474-7.731-10.292-3.123-16.576c4.535-6.186,10.71-6.469,16.781-2.351
			c7.948,5.391,15.656,11.143,23.37,16.872C1622.506,728.543,1624.777,732.031,1624.673,736.684z"/>
		<path style="fill:#E8847A;" d="M1838.193,573.449c-0.347,0.88-0.869,3.526-2.278,5.557c-5.559,8.005-11.12,16.039-17.218,23.63
			c-4.688,5.836-11.048,8.154-17.444,2.85c-6.004-4.979-5.499-11.237-1.037-17.288c5.879-7.972,11.685-16,17.698-23.87
			c3.366-4.405,8.113-5.483,13.122-3.55C1835.822,562.625,1838.49,566.357,1838.193,573.449z"/>
		<path style="fill:#75E2FF;" d="M696.985,920.185c4.473-0.079,7.91,1.862,10.102,5.673c2.302,4.004,2.247,8.258-0.418,12.009
			c-6.13,8.629-12.325,17.224-18.844,25.559c-4.023,5.144-9.537,6.429-15.193,2.799c-5.349-3.433-7.458-9.078-4.07-14.414
			c6.257-9.858,13.442-19.142,20.517-28.455C690.841,921.036,693.883,920.104,696.985,920.185z"/>
		<path style="fill:#AAF2A7;" d="M1723.395,955.171c0.391-1.034,0.857-3.708,2.26-5.73c5.668-8.168,11.394-16.319,17.552-24.117
			c4.673-5.917,11.077-7.506,17.149-2.574c6.058,4.921,5.643,11.099,0.974,17.261c-5.805,7.662-11.276,15.576-17.05,23.261
			c-3.355,4.466-7.853,6.321-13.34,4.302C1725.98,965.748,1723.463,962.068,1723.395,955.171z"/>
		<path style="fill:#AAF2A7;" d="M1588.682,1763.033c3.493-0.335,6.534,1.604,9.437,3.705c7.265,5.256,14.669,10.354,21.613,16.01
			c5.847,4.763,7.204,11.119,2.204,17.144c-4.835,5.827-10.892,5.575-16.878,1.099c-7.96-5.953-16.075-11.704-23.928-17.795
			c-4.328-3.357-5.553-8.063-3.472-13.175C1579.542,1765.393,1583.104,1762.835,1588.682,1763.033z"/>
		<path style="fill:#75E2FF;" d="M520.895,718.146c-0.126-4.484,1.827-7.898,5.633-10.11c4.192-2.436,8.597-2.147,12.454,0.538
			c8.416,5.858,16.877,11.702,24.83,18.154c5.565,4.515,7.325,10.791,2.273,16.772c-4.868,5.763-10.925,5.636-16.938,1.216
			c-7.351-5.404-14.719-10.783-22.092-16.156C523.501,725.969,520.661,722.979,520.895,718.146z"/>
		<path style="fill:#F2E7AE;" d="M1972.045,821.477c-0.9-0.339-3.569-0.808-5.596-2.206c-8.291-5.719-16.616-11.434-24.478-17.714
			c-5.856-4.678-7.165-11.215-2.287-17.17c4.731-5.776,10.894-5.539,16.857-1.106c7.951,5.912,16.032,11.656,23.861,17.725
			c4.479,3.472,5.624,8.355,3.534,13.577C1982.167,819,1978.726,821.541,1972.045,821.477z"/>
		<path style="fill:#75E2FF;" d="M892.824,1836.285c1.602,0.606,4.137,1.036,6.03,2.373c8.504,6.005,16.945,12.112,25.17,18.492
			c5.374,4.169,6.561,9.727,2.673,15.489c-3.882,5.753-9.666,7.03-15.339,3.328c-9.108-5.944-17.905-12.413-26.465-19.13
			c-4.073-3.197-5.502-7.921-3.499-13.175C883.264,1838.759,887.199,1836.983,892.824,1836.285z"/>
		<path style="fill:#F2E7AE;" d="M520.867,1774.064c0.067-9.262,9.637-14.447,17.885-9.127c8.728,5.63,17.167,11.791,25.236,18.332
			c5.6,4.539,7.119,10.816,2.012,16.739c-4.934,5.722-10.931,5.512-16.896,1.104c-7.456-5.51-14.923-11.006-22.411-16.472
			C523.088,1782.008,520.589,1778.814,520.867,1774.064z"/>
		<path style="fill:#E8847A;" d="M928.696,809.85c0.109,8.991-9.438,14.832-17.32,9.885c-9.081-5.7-17.763-12.135-26.09-18.9
			c-5.429-4.41-6.778-10.714-1.912-16.415c4.895-5.736,10.901-5.485,16.886-1.041c7.451,5.533,14.971,10.974,22.496,16.406
			C926.229,802.294,928.661,805.35,928.696,809.85z"/>
		<path style="fill:#FFE393;" d="M1838.394,1628.876c-0.569,1.425-1.114,4.062-2.526,6.098c-5.561,8.02-11.159,16.036-17.2,23.693
			c-4.716,5.977-11.185,8.134-17.443,2.883c-5.884-4.938-5.361-11.183-0.71-17.285c5.912-7.754,11.434-15.805,17.359-23.55
			c3.265-4.268,7.743-5.837,13.002-3.893C1835.89,1618.675,1838.109,1622.517,1838.394,1628.876z"/>
		<path style="fill:#F2C6B6;" d="M1973.161,1877.792c-4.596-0.348-7.809-3.212-11.223-5.677
			c-6.462-4.666-13.117-9.092-19.326-14.074c-5.782-4.64-7.948-10.819-2.803-17.024c4.942-5.961,11.027-5.727,17.193-0.987
			c7.864,6.046,16.042,11.684,23.891,17.749c4.181,3.231,5.41,7.758,3.248,12.688
			C1982.083,1875.161,1978.438,1877.874,1973.161,1877.792z"/>
		<path style="fill:#E8847A;" d="M1769.247,214.584c5.706-0.125,8.612,1.36,10.998,3.629c6.251,5.945,12.595,11.825,18.435,18.161
			c5.038,5.466,5.696,11.829,0.146,17.363c-5.52,5.505-11.734,5.102-17.343-0.123c-6.428-5.988-12.766-12.092-18.817-18.457
			c-3.752-3.947-4.463-8.861-2.137-13.949C1762.661,216.547,1766.583,214.717,1769.247,214.584z"/>
		<path style="fill:#8FE87A;" d="M746.485,1300.448c-0.177,5.676-2.596,9.382-6.977,11.615c-4.651,2.371-9.394,1.859-13.189-1.624
			c-6.965-6.392-13.833-12.927-20.279-19.834c-4.108-4.402-4.303-9.928-0.648-14.796c3.59-4.782,9.077-6.783,14.273-3.816
			c10.441,5.962,18.056,15.258,25.613,24.421C746.215,1297.551,746.211,1299.464,746.485,1300.448z"/>
		<path style="fill:#8FE87A;" d="M751.985,607.784c-4.242-0.171-7.518-2.101-9.55-5.779c-2.245-4.064-1.99-8.225,0.708-11.994
			c5.783-8.078,11.639-16.107,17.587-24.064c4.264-5.704,9.909-7.949,16.125-3.778c6.474,4.344,6.406,10.77,2.419,16.736
			c-5.519,8.258-11.541,16.188-17.552,24.102C759.383,606.085,756.091,607.919,751.985,607.784z"/>
		<path style="fill:#FFE393;" d="M703.174,228.207c-0.23-6.415,2.313-9.682,6.499-11.983c4.546-2.5,9.094-2.12,12.75,1.189
			c7.134,6.456,14.183,13.072,20.64,20.189c4.263,4.7,4.494,10.52,0.003,15.549c-4.006,4.486-9.386,6.354-14.464,2.678
			c-9.124-6.606-17.029-14.681-24.092-23.48C703.395,230.959,703.329,228.728,703.174,228.207z"/>
		<path style="fill:#F2E7AE;" d="M1244.625,1841.656c-6.376,0.156-9.739-2.477-11.891-6.635c-2.394-4.626-1.911-9.41,1.529-13.168
			c6.378-6.968,12.927-13.828,19.914-20.173c4.722-4.288,10.46-4.35,15.531-0.127c4.524,3.768,6.099,9.08,3.008,14.011
			c-6.182,9.862-14.928,17.543-23.89,24.851C1247.465,1841.524,1245.184,1841.505,1244.625,1841.656z"/>
		<path style="fill:#E8847A;" d="M188.383,1841.71c-6.344,0.129-9.64-2.387-11.88-6.588c-2.548-4.778-1.73-9.361,1.692-13.121
			c6.134-6.74,12.416-13.386,19.092-19.58c4.789-4.443,10.701-5.017,15.933-0.689c4.758,3.936,6.575,9.629,2.821,14.825
			c-6.478,8.967-14.467,16.703-23.042,23.719C191.524,1841.482,189.084,1841.509,188.383,1841.71z"/>
		<path style="fill:#8FE87A;" d="M204.52,742.683c6.274-0.27,9.682,2.21,12.022,6.303c2.418,4.23,2.462,8.794-0.742,12.339
			c-6.768,7.487-13.751,14.83-21.191,21.638c-4.217,3.859-9.659,3.962-14.305,0.105c-4.641-3.853-6.391-9.35-3.32-14.414
			c6.025-9.935,14.691-17.683,23.761-24.853C202.014,742.797,204.079,742.803,204.52,742.683z"/>
		<path style="fill:#FFE393;" d="M1260.797,742.732c5.693-0.137,9.045,1.76,11.24,5.677c2.567,4.58,2.625,9.425-0.78,13.236
			c-6.618,7.406-13.512,14.627-20.866,21.291c-4.255,3.855-9.809,3.684-14.401-0.014c-4.302-3.466-6.445-8.612-3.493-13.459
			c6.303-10.348,15.101-18.606,24.817-25.801C1258.502,742.782,1260.379,742.834,1260.797,742.732z"/>
		<path style="fill:#F2E7AE;" d="M1802.102,1300.517c0.176,5.984-2.144,9.469-6.486,11.583c-4.917,2.393-9.724,1.676-13.614-1.911
			c-6.715-6.191-13.293-12.564-19.516-19.244c-4.092-4.392-4.291-9.908-1.064-14.883c3.06-4.718,8.488-7.114,13.225-4.503
			c11.085,6.109,19.426,15.578,26.895,25.699C1802.307,1298.295,1802.04,1300.095,1802.102,1300.517z"/>
		<path style="fill:#F2C2DC;" d="M1887.698,337.479c-7.273-0.754-11.082-5.21-11.205-12.522
			c-0.124-7.352,4.133-11.906,11.249-11.995c7.809-0.098,11.886,5.329,11.879,12.662
			C1899.615,332.676,1895.436,336.975,1887.698,337.479z"/>
		<path style="fill:#F2C6B6;" d="M605.983,1202.452c0.377-7.205,4.514-11.513,11.667-11.549c7.562-0.038,11.766,5.01,11.825,12.247
			c0.059,7.193-4.477,11.847-11.638,11.775C610.509,1214.851,606.346,1210.277,605.983,1202.452z"/>
		<path style="fill:#AAF2A7;" d="M831.521,337.43c-7.35-0.605-11.342-5.325-11.315-12.402c0.027-6.987,4.254-11.662,11.66-11.662
			c7.993,0.001,11.262,5.57,11.245,12.513C843.095,332.689,839.089,336.955,831.521,337.43z"/>
		<path style="fill:#FFE393;" d="M1342.58,1701.242c6.767,0.958,11.533,4.592,11.373,11.95c-0.166,7.617-5.351,11.497-12.523,11.511
			c-7.268,0.014-11.688-4.658-11.628-11.729C1329.865,1705.439,1335.114,1701.989,1342.58,1701.242z"/>
		<path style="fill:#F2C6B6;" d="M286.251,645.355c7.326,0.457,11.761,4.439,11.661,11.674c-0.104,7.572-5.104,11.51-12.461,11.398
			c-7.199-0.11-11.743-4.111-11.63-11.577C273.939,649.071,279.002,645.833,286.251,645.355z"/>
		<path style="fill:#8FE87A;" d="M297.847,1713.234c-0.694,7.574-5.258,11.514-12.467,11.506
			c-7.17-0.008-11.639-4.251-11.576-11.604c0.068-7.851,5.46-11.301,12.499-11.28
			C293.219,1701.876,297.22,1706.069,297.847,1713.234z"/>
		<path style="fill:#AAF2A7;" d="M332.261,1192.042c-0.974,6.846-4.593,11.442-11.954,11.573
			c-7.329,0.131-11.854-3.924-11.914-11.313c-0.063-7.717,5.145-11.779,12.188-11.913
			C327.51,1180.258,331.372,1184.89,332.261,1192.042z"/>
		<path style="fill:#75E2FF;" d="M843.562,1381.488c-0.624,7.188-4.558,11.751-11.73,11.73c-7.529-0.022-11.668-5.117-11.63-12.36
			c0.036-6.91,4.34-11.529,11.328-11.536C838.944,1369.314,842.916,1374.001,843.562,1381.488z"/>
		<path style="fill:#75E2FF;" d="M1685.487,147.235c-0.705,7.012-4.421,11.517-11.773,11.519
			c-7.819,0.003-11.519-5.324-11.609-12.373c-0.091-7.135,4.281-11.918,11.552-11.772
			C1681.088,134.757,1684.818,139.734,1685.487,147.235z"/>
		<path style="fill:#75E2FF;" d="M1141.248,335.873c-0.839,7.601-5.483,11.739-12.609,11.751
			c-6.846,0.012-11.566-4.317-11.457-11.375c0.115-7.492,5.13-11.672,12.407-11.702
			C1136.63,324.517,1140.487,328.878,1141.248,335.873z"/>
		<path style="fill:#F2C2DC;" d="M1162.903,1938.896c-7.264-0.408-11.389-4.815-11.317-11.788
			c0.075-7.252,5.032-11.079,12.185-11.049c7.236,0.03,11.896,4.019,11.747,11.328
			C1175.367,1934.848,1170.547,1938.59,1162.903,1938.896z"/>
		<path style="fill:#AAF2A7;" d="M308.319,1415.593c-0.84,7.244-4.347,12.101-11.424,12.051c-7.73-0.055-11.967-5.224-11.893-12.702
			c0.067-6.755,4.315-11.092,11.172-11.17C303.933,1403.683,307.052,1409.109,308.319,1415.593z"/>
		<path style="fill:#F2C2DC;" d="M1899.433,1381.716c-0.29,7.354-4.458,11.495-11.307,11.512
			c-7.498,0.019-11.576-4.957-11.574-12.266c0.003-7.259,4.397-11.766,11.568-11.661
			C1895.666,1369.411,1899.209,1374.453,1899.433,1381.716z"/>
		<path style="fill:#F2E7AE;" d="M1140.938,112.306c0.738-7.272,4.513-11.638,11.627-11.604c7.631,0.036,11.782,4.88,11.745,12.238
			c-0.034,6.793-4.19,11.194-11.083,11.251C1145.604,124.254,1142.05,119.223,1140.938,112.306z"/>
		<path style="fill:#75E2FF;" d="M616.959,134.765c7.902,0.717,12.035,5.073,12.143,12.423c0.106,7.186-4.366,11.471-11.326,11.465
			c-7.436-0.007-11.7-4.518-11.736-12.159C606.006,139.141,610.433,135.773,616.959,134.765z"/>
		<path style="fill:#8FE87A;" d="M1685.309,1203.298c-0.708,7.156-4.666,11.711-11.791,11.677
			c-7.619-0.036-11.348-5.333-11.304-12.524c0.042-6.963,4.174-11.525,11.215-11.474
			C1680.945,1191.031,1684.494,1196.098,1685.309,1203.298z"/>
		<path style="fill:#75E2FF;" d="M95.377,871.156c0.828-7.141,4.989-11.38,12.048-11.511c7.188-0.134,11.747,4.135,11.838,11.411
			c0.097,7.758-5.129,11.565-12.252,11.635C99.952,882.76,96.344,878.091,95.377,871.156z"/>
		<path style="fill:#F2E7AE;" d="M1352.212,347.672c7.778,1.02,12.099,5.449,12.089,12.596c-0.009,6.882-4.402,11.378-11.477,11.212
			c-7.474-0.175-11.556-4.942-11.583-12.314C1341.214,351.965,1345.663,348.491,1352.212,347.672z"/>
		<path style="fill:#F2C6B6;" d="M72.689,1403.867c-7.282-0.757-11.545-4.646-11.51-11.702c0.038-7.631,4.877-11.788,12.253-11.641
			c7.041,0.141,11.35,4.565,11.154,11.659C84.383,1399.505,79.464,1402.976,72.689,1403.867z"/>
		<path style="fill:#F2E7AE;" d="M1364.407,135.995c0.645-7.193,5.003-11.27,11.974-11.458c7.234-0.196,11.821,4.247,11.776,11.458
			c-0.047,7.496-5.075,11.678-12.32,11.616C1368.906,147.552,1364.908,143.326,1364.407,135.995z"/>
		<path style="fill:#FFE393;" d="M1163.119,882.614c-6.984-0.606-11.33-4.11-11.23-11.396c0.108-7.827,5.289-11.493,12.338-11.501
			c6.911-0.008,11.365,4.349,11.324,11.396C1175.506,878.827,1170.328,882.074,1163.119,882.614z"/>
		<path style="fill:#75E2FF;" d="M296.624,347.694c7.539,0.622,11.506,5.356,11.48,12.403c-0.025,6.758-4.187,11.409-11.363,11.327
			c-7.656-0.088-11.629-5.161-11.634-12.28C285.101,352.263,289.328,348.213,296.624,347.694z"/>
		<path style="fill:#F2C2DC;" d="M1340.991,1414.994c0.986-6.68,4.503-11.003,11.808-10.768c7.485,0.241,11.347,5.006,11.436,11.974
			c0.09,7.072-4.494,11.46-11.387,11.343C1345.511,1427.418,1341.583,1422.605,1340.991,1414.994z"/>
		<path style="fill:#FFE393;" d="M332.259,135.927c-1.014,7.305-5.338,11.566-12.633,11.463c-6.991-0.098-11.351-4.385-11.119-11.52
			c0.239-7.349,5.247-11.261,12.155-11.314C327.578,124.503,331.576,128.759,332.259,135.927z"/>
		<path style="fill:#F2C6B6;" d="M96.689,1180.448c-7.577-0.612-11.541-5.385-11.558-12.465
			c-0.017-6.892,4.418-11.505,11.469-11.274c7.47,0.246,11.575,5.331,11.432,12.598C107.9,1176.042,103.77,1179.947,96.689,1180.448
			z"/>
		<path style="fill:#F2E7AE;" d="M1341.945,645.541c7.696,0.102,11.617,4.434,11.625,11.246c0.009,7.476-4.838,11.6-12.24,11.574
			c-7.119-0.025-11.473-4.414-11.403-11.285C1330.001,649.719,1334.681,645.721,1341.945,645.541z"/>
		<path style="fill:#FFE393;" d="M105.8,1938.872c-5.919-0.39-10.317-3.913-10.362-11.116c-0.05-7.848,5.174-11.492,12.263-11.531
			c7.025-0.039,11.364,4.492,11.258,11.427C118.848,1934.88,114.234,1938.666,105.8,1938.872z"/>
		<path style="fill:#F2C6B6;" d="M84.952,335.519c-0.83,7.737-5.455,11.898-12.588,11.934c-6.746,0.034-11.054-4.385-10.947-11.263
			c0.117-7.54,4.822-11.82,12.249-11.716C80.486,324.569,84.209,328.835,84.952,335.519z"/>
		<path style="fill:#E8847A;" d="M96.615,124.022c-7.461-0.69-11.406-5.305-11.426-12.189c-0.019-6.886,4.386-11.43,11.434-11.363
			c7.386,0.071,11.313,5.102,11.353,12.08C108.015,119.559,103.698,123.455,96.615,124.022z"/>
		<path style="fill:#FFE393;" d="M1375.495,1203.758c-6.531-0.896-11.067-4.341-10.761-11.665
			c0.307-7.36,4.947-11.281,12.107-11.317c7.313-0.037,11.335,4.705,11.182,11.509
			C1387.863,1199.422,1383.1,1203.256,1375.495,1203.758z"/>
		<path style="fill:#50A7F2;" d="M1593.354,361.145c-0.941,6.551-4.454,11.078-11.613,11.176
			c-7.468,0.103-11.687-4.594-11.745-11.618c-0.06-7.236,4.747-11.654,11.886-11.477
			C1588.718,349.396,1592.764,353.722,1593.354,361.145z"/>
		<path style="fill:#B586FF;" d="M333.024,962.494c-0.397,7.962-4.656,12.089-11.761,12.072
			c-6.979-0.017-11.256-4.343-11.244-11.484c0.012-7.157,4.277-11.31,11.318-11.375
			C328.439,951.642,332.095,956.083,333.024,962.494z"/>
		<path style="fill:#F2C6B6;" d="M1499.249,1398.677c-0.1,8.075-4.48,12.098-11.205,12.257c-7.019,0.166-11.888-4.078-11.896-11.433
			c-0.008-7.064,4.41-11.262,11.462-11.288C1494.616,1388.187,1498.642,1392.199,1499.249,1398.677z"/>
		<path style="fill:#F2C6B6;" d="M304.374,1068.673c-6.816-0.682-11.512-3.884-11.734-11.192
			c-0.215-7.125,3.612-11.449,10.796-11.846c7.576-0.419,11.824,4.161,12.111,11.163
			C315.831,1063.744,311.435,1067.769,304.374,1068.673z"/>
		<path style="fill:#B586FF;" d="M536.28,908.775c-7-0.96-11.402-4.828-11.137-11.836c0.259-6.846,4.467-11.12,11.679-11.028
			c7.209,0.092,11.282,4.415,11.353,11.321C548.251,904.694,543.206,907.962,536.28,908.775z"/>
		<path style="fill:#F2E7AE;" d="M912.966,1698.643c-6.985-0.88-11.477-4.499-11.578-11.598
			c-0.106-7.455,4.575-11.649,11.715-11.553c6.96,0.094,11.366,4.641,11.38,11.595
			C924.498,1694.181,919.737,1697.692,912.966,1698.643z"/>
		<path style="fill:#75E2FF;" d="M1488.057,331.954c7.033,0.622,11.194,4.462,11.079,11.874c-0.114,7.305-4.695,11.153-11.57,11.155
			c-7.039,0.002-11.491-4.532-11.496-11.396C1476.065,336.582,1480.235,332.228,1488.057,331.954z"/>
		<path style="fill:#75E2FF;" d="M592.707,1643.667c-8.336-0.342-12.557-4.72-12.644-11.66c-0.086-6.845,4.272-11.37,11.399-11.338
			c7.013,0.032,11.439,4.224,11.567,11.251C603.157,1638.961,598.752,1642.72,592.707,1643.667z"/>
		<path style="fill:#50A7F2;" d="M1146.208,482.523c-8.032-0.071-12.214-4.289-12.331-11.095
			c-0.121-7.061,4.208-11.843,11.567-11.737c6.946,0.1,11.372,4.324,11.387,11.449
			C1156.845,478.249,1152.578,482.03,1146.208,482.523z"/>
		<path style="fill:#50A7F2;" d="M1164.33,1168.91c-0.654,6.47-3.879,10.936-10.981,11.093c-7.673,0.169-11.493-4.826-11.693-11.692
			c-0.195-6.664,3.946-11.388,10.822-11.438C1159.721,1156.82,1163.616,1161.415,1164.33,1168.91z"/>
		<path style="fill:#F2C6B6;" d="M432.983,332.044c6.591,0.226,10.206,4.886,10.157,11.569c-0.05,6.847-4.304,11.301-11.479,11.302
			c-7.241,0.001-11.422-4.665-11.358-11.404C420.369,336.631,424.378,332.014,432.983,332.044z"/>
		<path style="fill:#50A7F2;" d="M1005.951,128.696c0.66-7.328,4.826-11.397,11.702-11.468c7.026-0.073,11.48,4.345,11.471,11.326
			c-0.009,6.964-4.428,11.322-11.476,11.329C1010.585,139.891,1006.843,135.484,1005.951,128.696z"/>
		<path style="fill:#E8847A;" d="M89.164,1538.85c-7.261-0.731-11.473-4.786-11.539-11.653c-0.067-6.965,4.285-11.395,11.305-11.421
			c7.079-0.026,11.25,4.514,11.284,11.438C100.249,1534.167,96.049,1538.128,89.164,1538.85z"/>
		<path style="fill:#F2E7AE;" d="M923.791,122.807c-7.058-0.713-11.429-4.606-11.47-11.586c-0.039-6.795,4.223-10.975,11.101-11.227
			c7.303-0.268,11.519,4.216,11.68,11.067C935.265,118.007,930.857,121.986,923.791,122.807z"/>
		<path style="fill:#F2C6B6;" d="M1659.081,1631.833c-0.669,6.888-4.296,11.314-11.331,11.565
			c-7.295,0.26-11.278-4.383-11.375-11.249c-0.103-7.245,4.416-11.792,11.604-11.699
			C1654.666,1620.538,1658.461,1624.895,1659.081,1631.833z"/>
		<path style="fill:#50A7F2;" d="M1604.185,896.651c-0.704,7.947-4.669,12.149-11.635,12.126
			c-7.294-0.024-11.585-4.575-11.361-11.846c0.216-6.979,4.435-11.129,11.649-10.995
			C1600.127,886.072,1603.251,890.751,1604.185,896.651z"/>
		<path style="fill:#AAF2A7;" d="M869.401,952.402c-0.881,6.951-4.597,11.242-11.759,11.058
			c-7.066-0.182-11.275-4.436-11.143-11.496c0.132-7.047,4.449-11.105,11.549-11.057
			C865.319,940.956,868.65,945.528,869.401,952.402z"/>
		<path style="fill:#F2C6B6;" d="M537.011,360.701c-0.461,7.416-4.389,11.536-11.447,11.541
			c-7.138,0.005-11.365-4.439-11.369-11.421c-0.004-7.024,4.317-11.31,11.431-11.311
			C532.793,349.507,536.457,353.839,537.011,360.701z"/>
		<path style="fill:#AAF2A7;" d="M1581.927,1428.203c-7.767-0.213-11.685-4.508-11.741-11.376
			c-0.057-7.011,4.3-11.349,11.397-11.389c6.999-0.04,10.855,4.334,10.976,11.159
			C1592.684,1423.691,1588.876,1427.776,1581.927,1428.203z"/>
		<path style="fill:#75E2FF;" d="M526.763,1428.231c-8.733-0.067-12.416-4.881-12.344-11.783
			c0.069-6.594,4.231-11.095,11.229-11.039c7.11,0.057,11.349,4.273,11.38,11.372
			C537.059,1423.826,533.141,1427.917,526.763,1428.231z"/>
		<path style="fill:#F2E7AE;" d="M443.122,1398.846c-0.291,7.805-4.329,12.097-11.205,12.165
			c-7.141,0.071-11.737-4.484-11.628-11.659c0.105-6.864,4.438-11.286,11.526-11.28
			C438.964,1388.08,442.56,1392.533,443.122,1398.846z"/>
		<path style="fill:#8FE87A;" d="M1659.15,575.209c-0.625,7.543-4.107,11.809-11.372,11.952
			c-7.545,0.149-11.755-4.228-11.746-11.399c0.009-6.967,4.305-11.218,11.484-11.259
			C1654.736,564.464,1658.287,568.774,1659.15,575.209z"/>
		<path style="fill:#75E2FF;" d="M912.733,642.205c-7.297-0.738-11.331-4.78-11.29-11.78c0.041-7.015,4.69-10.904,11.333-10.916
			c6.986-0.012,11.514,4.323,11.427,11.393C924.117,637.902,919.712,641.714,912.733,642.205z"/>
		<path style="fill:#F2C6B6;" d="M1140.668,1391.848c-0.82,6.818-4.274,11.499-11.66,11.626c-6.988,0.12-11.078-4.2-11.18-10.881
			c-0.109-7.166,4.215-11.579,11.515-11.737C1136.29,1380.707,1139.961,1384.753,1140.668,1391.848z"/>
		<path style="fill:#F2C6B6;" d="M83.176,1621.241c-0.988,6.92-4.698,11.282-11.468,11.238c-6.927-0.046-11.33-4.224-11.324-11.388
			c0.006-7.187,4.404-11.26,11.387-11.239C78.937,1609.874,82.284,1614.638,83.176,1621.241z"/>
		<path style="fill:#F2C6B6;" d="M71.95,576.478c-7.695-0.533-11.237-4.975-11.196-11.513c0.044-7.061,3.953-11.805,11.589-11.395
			c7.132,0.383,10.996,4.898,10.785,11.861C82.914,572.528,78.42,576.028,71.95,576.478z"/>
		<path style="fill:#8FE87A;" d="M1359.272,1045.569c8.004,0.467,12.068,4.798,12.117,11.568
			c0.047,6.546-3.878,11.291-10.912,11.337c-6.985,0.045-11.276-3.674-11.472-11.101
			C1348.807,1049.871,1353.239,1046.676,1359.272,1045.569z"/>
		<path style="fill:#8FE87A;" d="M1902.582,952.354c0.735-7.252,4.464-11.38,11.585-11.472c7.45-0.096,11.086,4.786,11.098,11.476
			c0.013,6.853-4.12,11.49-11.322,11.345C1906.897,963.562,1903.213,959.165,1902.582,952.354z"/>
		<path style="fill:#75E2FF;" d="M1156.326,1528.385c-0.138,5.758-3.923,10.061-11.019,10.052
			c-7.143-0.01-11.161-4.716-11.214-11.603c-0.053-6.845,4.371-11.149,11.035-11.214
			C1151.98,1515.551,1156.317,1519.455,1156.326,1528.385z"/>
		<path style="fill:#75E2FF;" d="M1980.115,99.655c7.151,0.402,11.375,4.56,11.348,11.662c-0.026,6.97-4.45,11.164-11.511,11.177
			c-7.033,0.013-10.91-4.587-11.004-11.137C1968.852,104.651,1972.421,100.04,1980.115,99.655z"/>
		<path style="fill:#FFE393;" d="M1116.578,564.919c0.621-7.231,4.492-11.346,11.589-11.292c7.135,0.055,11.292,4.342,11.259,11.428
			c-0.032,7.153-4.375,11.178-11.474,11.167C1120.74,576.212,1117.159,571.887,1116.578,564.919z"/>
		<path style="fill:#F2C6B6;" d="M1980.204,1156.062c6.939,0.345,11.104,4.195,11.213,11.26c0.111,7.24-4.583,11.25-11.372,11.422
			c-6.882,0.175-10.976-4.354-11.066-11.079C1968.887,1160.798,1972.557,1156.397,1980.204,1156.062z"/>
		<path style="fill:#AAF2A7;" d="M1969.436,1675.551c6.841,0.807,10.862,4.496,10.851,11.411
			c-0.011,7.082-3.933,11.402-11.11,11.414c-7.161,0.012-11.262-4.33-11.245-11.345
			C1957.949,1679.871,1962.628,1676.445,1969.436,1675.551z"/>
		<path style="fill:#75E2FF;" d="M1968.805,642.26c-6.906-0.629-11.069-4.179-11.023-11.502c0.047-7.394,4.6-11.244,11.419-11.28
			c7.023-0.037,11.138,4.253,11.085,11.501C1980.232,638.271,1976.086,641.845,1968.805,642.26z"/>
		<path style="fill:#F2E7AE;" d="M1116.623,1621.148c0.429-8.04,5.116-11.579,11.798-11.495c6.749,0.084,10.982,4.56,10.817,11.355
			c-0.167,6.877-4.246,11.465-11.447,11.245C1120.752,1632.038,1117.109,1627.597,1116.623,1621.148z"/>
		<path style="fill:#FFE393;" d="M602.758,575.838c-0.786,7-4.426,11.225-11.648,11.18c-7.141-0.044-10.912-4.625-10.884-11.223
			c0.029-6.952,4.358-11.336,11.5-11.213C598.614,564.701,602.204,568.962,602.758,575.838z"/>
		<path style="fill:#F2E7AE;" d="M547.954,1953.065c-0.449,7.851-4.807,11.781-11.567,11.74
			c-6.868-0.041-11.433-4.415-11.249-11.461c0.173-6.633,4.218-10.832,11.227-10.908
			C543.718,1942.357,546.989,1946.872,547.954,1953.065z"/>
		<path style="fill:#8FE87A;" d="M1018.379,1195.889c-7.759-0.093-11.533-4.082-11.735-10.843
			c-0.214-7.136,4.107-11.508,11.006-11.621c6.89-0.113,11.524,4.207,11.483,11.22
			C1029.094,1191.478,1025.166,1195.76,1018.379,1195.889z"/>
		<path style="fill:#50A7F2;" d="M922.804,1156.142c8.522,0.079,12.208,4.547,12.304,11.332c0.101,7.143-4.688,11.238-11.495,11.184
			c-6.628-0.052-10.896-4.059-10.89-11.159C912.729,1160.255,916.646,1156.508,922.804,1156.142z"/>
		<path style="fill:#F2C2DC;" d="M1388.678,963.016c-0.311,7.317-4.195,11.323-11.271,11.449c-7.354,0.131-11.186-4.6-11.202-11.382
			c-0.016-6.678,4.169-11.077,11.027-11.115C1384.193,951.931,1388.338,955.808,1388.678,963.016z"/>
		<path style="fill:#F2C6B6;" d="M89.947,482.4c-8.318-0.255-11.762-4.898-11.814-11.306c-0.056-6.791,3.919-11.665,11.175-11.431
			c6.888,0.222,11.282,4.323,11.146,11.578C100.319,478.462,95.938,481.925,89.947,482.4z"/>
		<path style="fill:#8FE87A;" d="M1592.651,1942.183c7.213,0.415,11.241,4.037,11.34,11.263c0.101,7.416-4.561,11.214-11.239,11.336
			c-6.845,0.125-11.34-3.948-11.272-11.209C1581.547,1946.465,1585.644,1942.725,1592.651,1942.183z"/>
	</g>
</g>
</svg>
